<?xml version="1.0" standalone="no"?>
<!DOCTYPE svg PUBLIC "-//W3C//DTD SVG 20010904//EN"
 "http://www.w3.org/TR/2001/REC-SVG-20010904/DTD/svg10.dtd">
<svg version="1.0" xmlns="http://www.w3.org/2000/svg"
 width="260.000000pt" height="260.000000pt" viewBox="0 0 260.000000 260.000000"
 preserveAspectRatio="xMidYMid meet">
<metadata>
Created by potrace 1.11, written by Peter Selinger 2001-2013
</metadata>
<g transform="translate(0.000000,260.000000) scale(0.100000,-0.100000)"
fill="#000000" stroke="none">
<path d="M0 1300 l0 -1300 1300 0 1300 0 0 1300 0 1300 -1300 0 -1300 0 0
-1300z m2000 1233 c0 0 -20 -13 -45 -27 -69 -41 -167 -180 -234 -333 -16 -37
-66 -169 -111 -293 -45 -124 -90 -243 -100 -265 -9 -22 -68 -172 -130 -334
-96 -247 -115 -290 -123 -270 -9 26 -143 479 -255 864 -38 132 -82 294 -97
360 -32 141 -50 179 -103 227 -51 46 -98 61 -182 56 -87 -5 -151 -42 -195
-113 -28 -45 -30 -55 -29 -139 1 -109 20 -188 138 -579 46 -155 110 -374 141
-487 70 -249 213 -687 285 -870 45 -113 61 -142 101 -181 31 -32 63 -53 95
-63 45 -13 0 -15 -518 -15 l-568 -1 0 458 c0 251 -1 805 -3 1229 l-2 773 265
2 c281 3 1670 4 1670 1z m536 -6 c2 -2 1 -556 -3 -1230 l-6 -1227 -616 1
c-340 0 -604 4 -589 9 124 37 192 155 397 687 55 142 147 382 206 533 59 151
125 327 147 390 63 177 114 298 160 375 97 166 98 166 98 234 0 50 -6 74 -27
113 -25 46 -95 108 -122 108 -6 0 -11 3 -11 8 0 7 359 7 366 -1z"/>
</g>
</svg>
